{"glyphs":{"0":{"ha":949,"x_min":0,"x_max":0,"o":"m 474 -19 b 886 510 733 -19 886 178 b 474 1039 886 842 733 1039 b 61 510 215 1039 61 842 b 474 -19 61 178 215 -19 z m 474 231 b 321 510 383 231 321 308 b 474 789 321 711 383 789 b 628 510 565 789 628 711 b 474 231 628 308 565 231 z "},"1":{"ha":636,"x_min":0,"x_max":0,"o":"m 286 0 l 501 0 b 524 22 515 0 524 8 l 524 997 b 501 1019 524 1011 515 1019 l 347 1019 b 321 1010 338 1019 329 1017 l 33 761 b 28 732 24 753 22 743 l 63 661 b 90 649 68 649 79 644 l 264 706 l 264 22 b 286 0 264 8 272 0 z "},"2":{"ha":868,"x_min":0,"x_max":0,"o":"m 93 0 l 786 0 b 808 22 800 0 808 8 l 808 222 b 786 243 808 235 800 243 l 474 243 l 511 278 b 782 729 722 475 782 585 b 429 1039 782 914 639 1039 b 50 749 242 1039 101 928 b 65 722 46 735 51 725 l 251 671 b 278 686 264 668 274 672 b 413 796 306 760 351 796 b 519 700 478 796 519 760 b 342 403 519 626 479 557 l 82 113 b 71 86 75 106 71 97 l 71 22 b 93 0 71 8 79 0 z "},"3":{"ha":881,"x_min":0,"x_max":0,"o":"m 428 -19 b 818 288 663 -19 818 103 b 635 532 818 407 751 493 b 793 757 738 583 793 664 b 432 1039 793 919 643 1039 b 56 760 249 1039 106 938 b 74 733 53 746 60 736 l 260 689 b 288 704 274 685 282 692 b 419 807 314 772 357 807 b 533 711 488 807 533 768 b 419 621 533 658 486 621 l 369 621 b 347 600 356 621 347 613 l 347 447 b 369 425 347 433 356 425 l 417 425 b 554 324 501 425 554 389 b 424 218 554 260 507 218 b 276 319 350 218 303 253 b 249 335 271 333 261 339 l 65 288 b 49 261 51 285 46 275 b 428 -19 97 85 242 -19 z "},"4":{"ha":929,"x_min":0,"x_max":0,"o":"m 536 0 l 736 0 b 758 22 750 0 758 8 l 758 174 l 876 174 b 899 196 890 174 899 182 l 899 361 b 876 383 899 375 890 383 l 758 383 l 758 997 b 736 1019 758 1011 750 1019 l 585 1019 b 558 1006 574 1019 564 1015 l 33 288 b 25 261 28 279 25 271 l 25 196 b 47 174 25 182 33 174 l 514 174 l 514 22 b 536 0 514 8 522 0 z m 319 383 l 514 654 l 514 383 z "},"5":{"ha":885,"x_min":0,"x_max":0,"o":"m 449 -19 b 832 336 674 -19 832 126 b 514 664 832 532 700 664 b 322 601 436 664 376 640 l 342 782 l 753 782 b 774 804 765 782 774 790 l 774 997 b 753 1019 774 1011 765 1019 l 168 1019 b 146 999 156 1019 147 1014 l 101 481 b 115 454 100 468 106 460 l 225 399 b 256 399 235 393 246 393 b 429 461 329 444 374 461 b 568 338 515 461 568 413 b 433 218 568 264 517 218 b 282 314 363 218 310 251 b 254 326 275 325 267 331 l 75 281 b 60 253 61 278 54 268 b 449 -19 118 81 260 -19 z "},"6":{"ha":875,"x_min":0,"x_max":0,"o":"m 440 -19 b 832 339 675 -19 832 126 b 506 683 832 540 696 683 b 435 676 482 683 458 681 l 653 993 b 639 1019 663 1007 657 1019 l 400 1019 b 374 1006 389 1019 381 1015 l 236 799 b 47 349 97 586 47 472 b 440 -19 47 139 207 -19 z m 439 213 b 300 353 358 213 300 269 b 439 493 300 436 358 493 b 578 353 521 493 578 436 b 439 213 578 269 521 213 z "},"7":{"ha":808,"x_min":0,"x_max":0,"o":"m 160 0 l 396 0 b 421 18 407 0 417 7 l 772 904 b 776 931 775 913 776 921 l 776 997 b 754 1019 776 1011 768 1019 l 49 1019 b 26 997 35 1019 26 1011 l 26 796 b 49 775 26 783 35 775 l 450 775 l 143 25 b 160 0 138 11 144 0 z "},"8":{"ha":901,"x_min":0,"x_max":0,"o":"m 450 -19 b 846 285 689 -19 846 101 b 675 536 846 393 781 488 b 822 753 767 581 822 654 b 450 1039 822 919 674 1039 b 79 753 228 1039 79 919 b 226 536 79 654 133 581 b 54 285 119 488 54 393 b 450 -19 54 101 213 -19 z m 450 615 b 322 724 374 615 322 660 b 450 831 322 785 374 831 b 578 724 526 831 578 785 b 450 615 578 660 526 615 z m 450 192 b 299 318 360 192 299 244 b 450 442 299 390 360 442 b 601 318 540 442 601 390 b 450 192 601 244 540 192 z "},"9":{"ha":874,"x_min":0,"x_max":0,"o":"m 222 0 l 460 0 b 486 14 471 0 481 6 l 632 221 b 826 671 778 429 826 547 b 433 1039 826 881 667 1039 b 42 681 200 1039 42 893 b 363 336 42 479 178 336 b 433 344 388 336 411 339 l 207 26 b 222 0 197 13 204 0 z m 435 526 b 296 667 354 526 296 583 b 435 807 296 750 354 807 b 574 667 515 807 574 750 b 435 526 574 583 513 526 z "},"\u0000":{"ha":0,"x_min":0,"x_max":0,"o":""},"\r":{"ha":290,"x_min":0,"x_max":0,"o":""}," ":{"ha":290,"x_min":0,"x_max":0,"o":""},".":{"ha":411,"x_min":0,"x_max":0,"o":"m 206 -14 b 350 125 288 -14 350 43 b 206 264 350 207 288 264 b 60 125 124 264 60 207 b 206 -14 60 43 124 -14 z "},":":{"ha":411,"x_min":0,"x_max":0,"o":"m 206 464 b 350 603 288 464 350 521 b 206 742 350 685 288 742 b 60 603 124 742 60 685 b 206 464 60 521 124 464 z m 206 -14 b 350 125 288 -14 350 43 b 206 264 350 207 288 264 b 60 125 124 264 60 207 b 206 -14 60 43 124 -14 z "},",":{"ha":411,"x_min":0,"x_max":0,"o":"m 85 -240 l 197 -240 b 222 -224 210 -240 218 -235 l 275 -107 b 350 125 329 13 350 60 b 206 264 350 207 288 264 b 60 125 124 264 60 207 b 139 0 60 67 92 22 l 67 -215 b 85 -240 61 -229 69 -240 z "},";":{"ha":411,"x_min":0,"x_max":0,"o":"m 206 464 b 350 603 288 464 350 521 b 206 742 350 685 288 742 b 60 603 124 742 60 685 b 206 464 60 521 124 464 z m 85 -240 l 197 -240 b 222 -224 210 -240 218 -235 l 275 -107 b 350 125 329 13 350 60 b 206 264 350 207 288 264 b 60 125 124 264 60 207 b 139 0 60 67 92 22 l 67 -215 b 85 -240 61 -229 69 -240 z "},"?":{"ha":797,"x_min":0,"x_max":0,"o":"m 271 331 l 468 331 b 490 353 481 331 490 339 l 492 424 b 744 733 653 461 744 586 b 392 1039 744 918 599 1039 b 22 792 221 1039 81 950 b 38 764 18 778 25 768 l 231 718 b 260 732 243 715 251 721 b 379 808 285 782 324 808 b 488 706 446 808 488 768 b 307 575 488 628 440 575 l 265 575 b 244 553 253 575 244 567 l 249 353 b 271 331 249 339 257 331 z m 368 -14 b 510 121 447 -14 510 40 b 368 256 510 201 447 256 b 226 121 289 256 226 201 b 368 -14 226 40 289 -14 z "},"!":{"ha":404,"x_min":0,"x_max":0,"o":"m 117 343 l 288 343 b 311 365 301 343 311 351 l 326 997 b 306 1019 326 1010 319 1019 l 100 1019 b 78 997 86 1019 78 1010 l 94 365 b 117 343 94 351 104 343 z m 203 -14 b 344 122 282 -14 344 42 b 203 258 344 203 282 258 b 60 122 122 258 60 203 b 203 -14 60 42 122 -14 z "},"'":{"ha":411,"x_min":0,"x_max":0,"o":"m 132 603 l 278 603 b 300 624 292 603 300 610 l 324 997 b 303 1019 325 1011 317 1019 l 108 1019 b 86 997 94 1019 86 1011 l 110 624 b 132 603 111 610 119 603 z "},"\"":{"ha":731,"x_min":0,"x_max":0,"o":"m 132 603 l 278 603 b 300 624 292 603 300 610 l 324 997 b 303 1019 325 1011 317 1019 l 108 1019 b 86 997 94 1019 86 1011 l 110 624 b 132 603 111 610 119 603 z m 451 603 l 597 603 b 619 624 611 603 619 610 l 643 997 b 622 1019 644 1011 636 1019 l 428 1019 b 406 997 414 1019 406 1011 l 429 624 b 451 603 431 610 439 603 z "},"‘":{"ha":411,"x_min":0,"x_max":0,"o":"m 201 583 b 331 706 278 583 331 635 b 260 818 331 757 303 799 l 322 994 b 304 1019 328 1008 319 1019 l 211 1019 b 185 1003 199 1019 190 1015 l 143 914 b 71 704 85 790 71 747 b 201 583 71 633 125 583 z "},"’":{"ha":411,"x_min":0,"x_max":0,"o":"m 107 603 l 200 603 b 225 619 211 603 221 608 l 268 708 b 339 918 325 832 339 875 b 210 1039 339 989 285 1039 b 79 918 133 1039 79 989 b 151 806 79 865 107 825 l 89 629 b 107 603 83 614 92 603 z "},"“":{"ha":731,"x_min":0,"x_max":0,"o":"m 201 583 b 331 706 278 583 331 635 b 260 818 331 757 303 799 l 322 994 b 304 1019 328 1008 319 1019 l 211 1019 b 185 1003 199 1019 190 1015 l 143 914 b 71 704 85 790 71 747 b 201 583 71 633 125 583 z m 521 583 b 650 706 597 583 650 635 b 579 818 650 757 622 799 l 642 994 b 624 1019 647 1008 639 1019 l 531 1019 b 504 1003 518 1019 510 1015 l 463 914 b 390 704 404 790 390 747 b 521 583 390 633 444 583 z "},"”":{"ha":731,"x_min":0,"x_max":0,"o":"m 107 603 l 200 603 b 225 619 211 603 221 608 l 268 708 b 339 918 325 832 339 875 b 210 1039 339 989 285 1039 b 79 918 133 1039 79 989 b 151 806 79 865 107 825 l 89 629 b 107 603 83 614 92 603 z m 426 603 l 519 603 b 544 619 531 603 540 608 l 588 708 b 658 918 644 832 658 875 b 529 1039 658 989 604 1039 b 399 918 453 1039 399 989 b 471 806 399 865 426 825 l 408 629 b 426 603 403 614 411 603 z "},"…":{"ha":1389,"x_min":0,"x_max":0,"o":"m 229 -14 b 374 125 311 -14 374 43 b 229 264 374 207 311 264 b 83 125 147 264 83 207 b 229 -14 83 43 147 -14 z m 693 -14 b 838 125 775 -14 838 43 b 693 264 838 207 775 264 b 547 125 611 264 547 207 b 693 -14 547 43 611 -14 z m 1161 -14 b 1306 125 1243 -14 1306 43 b 1161 264 1306 207 1243 264 b 1015 125 1079 264 1015 207 b 1161 -14 1015 43 1079 -14 z "}," ":{"ha":290,"x_min":0,"x_max":0,"o":""}," ":{"ha":694,"x_min":0,"x_max":0,"o":""}," ":{"ha":1389,"x_min":0,"x_max":0,"o":""}," ":{"ha":694,"x_min":0,"x_max":0,"o":""}," ":{"ha":1389,"x_min":0,"x_max":0,"o":""}," ":{"ha":463,"x_min":0,"x_max":0,"o":""}," ":{"ha":347,"x_min":0,"x_max":0,"o":""}," ":{"ha":232,"x_min":0,"x_max":0,"o":""}," ":{"ha":833,"x_min":0,"x_max":0,"o":""}," ":{"ha":411,"x_min":0,"x_max":0,"o":""}," ":{"ha":278,"x_min":0,"x_max":0,"o":""}," ":{"ha":231,"x_min":0,"x_max":0,"o":""},"​":{"ha":0,"x_min":0,"x_max":0,"o":""},"﻿":{"ha":0,"x_min":0,"x_max":0,"o":""},"⁄":{"ha":167,"x_min":0,"x_max":0,"o":"m -321 0 l -162 0 b -136 15 -151 0 -143 6 l 503 993 b 488 1019 513 1008 506 1019 l 329 1019 b 303 1004 318 1019 310 1014 l -336 26 b -321 0 -346 11 -339 0 z "},"%":{"ha":1307,"x_min":0,"x_max":0,"o":"m 285 447 b 543 740 444 447 543 557 b 285 1033 543 924 444 1033 b 26 740 125 1033 26 924 b 285 447 26 557 125 447 z m 253 0 l 411 0 b 438 15 422 0 431 6 l 1076 993 b 1061 1019 1086 1008 1079 1019 l 903 1019 b 876 1004 892 1019 883 1014 l 238 26 b 253 0 228 11 235 0 z m 285 596 b 214 740 239 596 214 638 b 285 885 214 843 239 885 b 357 740 331 885 357 843 b 285 596 357 638 331 596 z m 1021 -14 b 1279 279 1181 -14 1279 96 b 1021 572 1279 463 1181 572 b 763 279 861 572 763 463 b 1021 -14 763 96 861 -14 z m 1021 135 b 950 279 975 135 950 176 b 1021 424 950 382 975 424 b 1093 279 1067 424 1093 382 b 1021 135 1093 176 1067 135 z "},"‰":{"ha":1874,"x_min":0,"x_max":0,"o":"m 285 447 b 543 740 444 447 543 557 b 285 1033 543 924 444 1033 b 26 740 125 1033 26 924 b 285 447 26 557 125 447 z m 253 0 l 411 0 b 438 15 422 0 431 6 l 1076 993 b 1061 1019 1086 1008 1079 1019 l 903 1019 b 876 1004 892 1019 883 1014 l 238 26 b 253 0 228 11 235 0 z m 285 596 b 214 740 239 596 214 638 b 285 885 214 843 239 885 b 357 740 331 885 357 843 b 285 596 357 638 331 596 z m 1021 -14 b 1279 279 1181 -14 1279 96 b 1021 572 1279 463 1181 572 b 763 279 861 572 763 463 b 1021 -14 763 96 861 -14 z m 1589 -14 b 1847 279 1749 -14 1847 96 b 1589 572 1847 463 1749 572 b 1331 279 1429 572 1331 463 b 1589 -14 1331 96 1429 -14 z m 1021 135 b 950 279 975 135 950 176 b 1021 424 950 382 975 424 b 1093 279 1067 424 1093 382 b 1021 135 1093 176 1067 135 z m 1589 135 b 1518 279 1543 135 1518 176 b 1589 424 1518 382 1543 424 b 1661 279 1635 424 1661 382 b 1589 135 1661 176 1635 135 z "},"½":{"ha":1307,"x_min":0,"x_max":0,"o":"m 232 0 l 390 0 b 417 15 401 0 410 6 l 1056 993 b 1040 1019 1065 1008 1058 1019 l 882 1019 b 856 1004 871 1019 863 1014 l 217 26 b 232 0 207 11 214 0 z m 249 461 l 389 461 b 408 482 401 461 408 469 l 408 999 b 389 1019 408 1011 401 1019 l 301 1019 b 276 1011 292 1019 283 1017 l 85 863 b 78 833 76 854 74 844 l 99 792 b 125 781 104 781 114 778 l 228 813 l 228 482 b 249 461 228 469 236 461 z m 811 0 l 1221 0 b 1242 21 1233 0 1242 8 l 1242 126 b 1221 146 1242 139 1233 146 l 1057 146 b 1229 392 1164 228 1229 301 b 1013 572 1229 501 1140 572 b 783 410 901 572 814 508 b 797 385 779 396 785 388 l 910 356 b 936 369 921 353 931 357 b 999 418 951 403 969 418 b 1043 374 1024 418 1043 403 b 951 228 1043 339 1017 294 l 800 69 b 790 44 794 63 790 54 l 790 21 b 811 0 790 8 799 0 z "},"¼":{"ha":1307,"x_min":0,"x_max":0,"o":"m 288 0 l 446 0 b 472 15 457 0 465 6 l 1111 993 b 1096 1019 1121 1008 1114 1019 l 938 1019 b 911 1004 926 1019 918 1014 l 272 26 b 288 0 263 11 269 0 z m 249 461 l 389 461 b 408 482 401 461 408 469 l 408 999 b 389 1019 408 1011 401 1019 l 301 1019 b 276 1011 292 1019 283 1017 l 85 863 b 78 833 76 854 74 844 l 99 792 b 125 781 104 781 114 778 l 228 813 l 228 482 b 249 461 228 469 236 461 z m 1046 0 l 1172 0 b 1193 21 1185 0 1193 8 l 1193 96 l 1244 96 b 1265 117 1257 96 1265 104 l 1265 193 b 1244 213 1265 206 1257 213 l 1193 213 l 1193 538 b 1172 558 1193 550 1185 558 l 1079 558 b 1054 546 1068 558 1061 556 l 758 167 b 750 142 751 158 750 151 l 750 117 b 769 96 750 104 757 96 l 1026 96 l 1026 21 b 1046 0 1026 8 1033 0 z m 926 213 l 1026 340 l 1026 213 z "},"¾":{"ha":1307,"x_min":0,"x_max":0,"o":"m 274 447 b 508 624 400 447 508 515 b 414 753 508 692 472 732 b 496 876 465 779 496 828 b 275 1033 496 978 403 1033 b 53 894 165 1033 83 982 b 67 869 47 883 54 874 l 172 842 b 197 854 183 839 192 843 b 265 893 213 879 235 893 b 318 851 293 893 318 878 b 256 807 318 825 300 807 l 235 807 b 215 788 222 807 215 800 l 215 714 b 235 694 215 701 222 694 l 256 694 b 325 643 301 694 325 672 b 260 592 325 610 297 592 b 176 644 222 592 194 610 b 150 657 169 656 161 660 l 47 629 b 33 606 35 626 29 617 b 274 447 64 515 140 447 z m 288 0 l 446 0 b 472 15 457 0 465 6 l 1111 993 b 1096 1019 1121 1008 1114 1019 l 938 1019 b 911 1004 926 1019 918 1014 l 272 26 b 288 0 263 11 269 0 z m 1046 0 l 1172 0 b 1193 21 1185 0 1193 8 l 1193 96 l 1244 96 b 1265 117 1257 96 1265 104 l 1265 193 b 1244 213 1265 206 1257 213 l 1193 213 l 1193 538 b 1172 558 1193 550 1185 558 l 1079 558 b 1054 546 1068 558 1061 556 l 758 167 b 750 142 751 158 750 151 l 750 117 b 769 96 750 104 757 96 l 1026 96 l 1026 21 b 1046 0 1026 8 1033 0 z m 926 213 l 1026 340 l 1026 213 z "},"$":{"ha":853,"x_min":0,"x_max":0,"o":"m 357 -99 l 506 -99 b 528 -76 519 -99 528 -89 l 528 53 b 776 319 679 85 776 186 b 519 600 776 456 694 544 l 451 622 b 339 713 367 651 339 678 b 421 767 339 746 372 767 b 547 690 475 767 518 747 b 575 675 553 678 561 671 l 764 724 b 779 751 778 728 783 738 b 528 967 738 871 646 942 l 528 1093 b 506 1115 528 1107 519 1115 l 357 1115 b 335 1093 343 1115 335 1107 l 335 967 b 82 699 188 938 82 833 b 343 419 82 567 167 472 l 410 400 b 510 314 482 378 510 354 b 418 251 510 274 478 251 b 274 335 347 251 300 278 b 246 350 268 349 258 353 l 63 304 b 47 276 49 300 42 290 b 335 49 94 151 197 72 l 335 -76 b 357 -99 335 -89 343 -99 z "},"¢":{"ha":825,"x_min":0,"x_max":0,"o":"m 358 0 l 507 0 b 529 22 521 0 529 8 l 529 126 b 789 349 649 151 744 225 b 775 376 794 364 789 374 l 588 424 b 560 410 575 426 567 421 b 439 335 536 357 490 335 b 297 499 344 335 297 407 b 439 661 297 590 344 661 b 560 592 492 661 533 640 b 589 578 567 579 576 575 l 761 626 b 776 654 775 629 781 640 b 529 871 735 778 644 846 l 529 997 b 507 1019 529 1011 521 1019 l 358 1019 b 336 997 344 1019 336 1011 l 336 872 b 43 499 154 838 43 694 b 336 124 43 301 154 158 l 336 22 b 358 0 336 8 344 0 z "},"£":{"ha":888,"x_min":0,"x_max":0,"o":"m 83 0 l 796 0 b 817 22 808 0 817 8 l 817 222 b 796 243 817 235 808 243 l 367 243 b 422 415 403 299 418 356 l 592 415 b 613 438 604 415 613 424 l 613 540 b 592 563 613 554 604 563 l 406 563 b 386 683 396 604 386 646 b 486 796 386 757 422 796 b 615 700 544 796 589 764 b 643 685 621 686 631 682 l 832 738 b 847 765 846 740 851 750 b 469 1039 790 935 651 1039 b 118 726 261 1039 118 911 b 139 563 118 661 128 610 l 89 563 b 67 540 75 563 67 554 l 67 438 b 89 415 67 424 75 415 l 169 415 b 171 376 171 403 171 390 b 71 114 171 288 143 229 b 63 86 65 104 63 96 l 63 22 b 83 0 63 8 71 0 z "},"¥":{"ha":1031,"x_min":0,"x_max":0,"o":"m 188 183 l 385 183 l 385 22 b 407 0 385 8 394 0 l 622 0 b 644 22 636 0 644 8 l 644 183 l 843 183 b 864 206 856 183 864 192 l 864 272 b 843 294 864 286 856 294 l 644 294 l 644 365 l 843 365 b 864 388 856 365 864 374 l 864 454 b 843 476 864 468 856 476 l 704 476 l 1008 993 b 992 1019 1017 1008 1010 1019 l 747 1019 b 721 1004 735 1019 726 1015 l 518 606 l 313 1004 b 288 1019 308 1014 300 1019 l 38 1019 b 22 993 21 1019 14 1008 l 325 476 l 188 476 b 165 454 174 476 165 468 l 165 388 b 188 365 165 374 174 365 l 385 365 l 385 294 l 188 294 b 165 272 174 294 165 286 l 165 206 b 188 183 165 192 174 183 z "},"€":{"ha":1011,"x_min":0,"x_max":0,"o":"m 44 368 l 119 368 b 546 -19 160 122 313 -19 b 953 261 739 -19 890 93 b 939 289 958 274 951 285 l 726 343 b 697 329 714 347 704 342 b 546 231 665 260 610 231 b 388 368 472 231 414 271 l 603 368 b 625 390 617 368 625 376 l 625 457 b 603 479 625 471 617 479 l 372 479 b 372 510 372 489 372 499 b 372 540 372 521 372 531 l 603 540 b 625 563 617 540 625 549 l 625 629 b 603 651 625 643 617 651 l 389 651 b 546 789 415 749 472 789 b 693 706 610 789 657 765 b 722 694 700 694 710 690 l 925 751 b 940 779 940 756 944 765 b 546 1039 872 946 735 1039 b 119 651 313 1039 160 897 l 44 651 b 22 629 31 651 22 643 l 22 563 b 44 540 22 549 31 540 l 108 540 b 108 510 108 531 108 519 b 108 479 108 500 108 489 l 44 479 b 22 457 31 479 22 471 l 22 390 b 44 368 22 376 31 368 z "},"¤":{"ha":860,"x_min":0,"x_max":0,"o":"m 160 181 b 190 182 169 171 182 172 l 276 278 b 429 246 321 257 374 246 b 582 278 486 246 538 257 l 669 182 b 700 181 678 172 690 171 l 800 269 b 801 301 810 281 811 292 l 713 399 b 744 536 733 439 744 485 b 711 676 744 589 733 636 l 801 774 b 800 804 811 783 810 794 l 700 894 b 669 892 690 904 678 903 l 582 796 b 429 828 538 817 486 828 b 276 796 374 828 321 817 l 190 892 b 160 894 182 901 169 904 l 60 804 b 58 774 50 794 49 783 l 149 676 b 115 536 126 636 115 589 b 147 399 115 485 126 439 l 58 301 b 60 269 49 292 50 281 z m 429 415 b 310 538 358 415 310 464 b 429 658 310 610 358 658 b 550 538 501 658 550 610 b 429 415 550 464 501 415 z "},"^":{"ha":833,"x_min":0,"x_max":0,"o":"m 69 472 l 276 472 b 303 489 289 472 299 476 l 419 728 l 536 489 b 563 472 540 476 550 472 l 764 472 b 779 499 781 472 788 483 l 497 1004 b 472 1019 492 1014 483 1019 l 361 1019 b 336 1004 350 1019 342 1014 l 54 499 b 69 472 46 483 53 472 z "},"+":{"ha":833,"x_min":0,"x_max":0,"o":"m 324 117 l 510 117 b 532 139 522 117 532 126 l 532 343 l 731 343 b 753 364 743 343 753 353 l 753 542 b 731 564 753 554 743 564 l 532 564 l 532 768 b 510 789 532 779 522 789 l 324 789 b 301 768 311 789 301 779 l 301 564 l 103 564 b 81 542 90 564 81 554 l 81 364 b 103 343 81 353 90 343 l 301 343 l 301 139 b 324 117 301 126 311 117 z "},"−":{"ha":833,"x_min":0,"x_max":0,"o":"m 103 342 l 731 342 b 753 364 743 342 753 351 l 753 542 b 731 563 753 553 743 563 l 103 563 b 81 542 90 563 81 553 l 81 364 b 103 342 81 351 90 342 z "},"=":{"ha":833,"x_min":0,"x_max":0,"o":"m 103 514 l 731 514 b 753 536 743 514 753 524 l 753 714 b 731 735 753 725 743 735 l 103 735 b 81 714 90 735 81 725 l 81 536 b 103 514 81 524 90 514 z m 103 157 l 731 157 b 753 179 743 157 753 167 l 753 357 b 731 378 753 368 743 378 l 103 378 b 81 357 90 378 81 368 l 81 179 b 103 157 81 167 90 157 z "},"÷":{"ha":833,"x_min":0,"x_max":0,"o":"m 417 613 b 535 726 483 613 535 658 b 417 838 535 793 483 838 b 299 726 351 838 299 793 b 417 613 299 660 351 613 z m 103 350 l 731 350 b 753 372 743 350 753 360 l 753 533 b 731 556 753 546 743 556 l 103 556 b 81 533 90 556 81 546 l 81 372 b 103 350 81 360 90 350 z m 417 67 b 535 181 483 67 535 113 b 417 293 535 246 483 293 b 299 181 351 293 299 246 b 417 67 299 113 351 67 z "},"<":{"ha":833,"x_min":0,"x_max":0,"o":"m 696 92 l 696 294 b 679 321 696 307 689 317 l 408 443 l 679 564 b 696 590 689 569 696 579 l 696 789 b 671 806 696 807 686 813 l 100 521 b 85 494 90 517 85 507 l 85 386 b 100 360 85 374 90 364 l 671 75 b 696 92 685 68 696 74 z "},">":{"ha":833,"x_min":0,"x_max":0,"o":"m 163 75 l 733 360 b 749 386 743 364 749 374 l 749 494 b 733 521 749 507 743 517 l 163 806 b 138 789 149 813 138 807 l 138 586 b 154 560 138 574 144 564 l 426 438 l 154 315 b 138 290 144 311 138 301 l 138 92 b 163 75 138 74 149 68 z "},"~":{"ha":833,"x_min":0,"x_max":0,"o":"m 564 246 b 790 575 704 246 782 363 b 769 610 790 597 782 610 l 621 610 b 600 586 608 610 600 601 b 543 471 597 507 578 471 b 271 619 479 471 428 619 b 43 279 128 619 49 499 b 65 256 43 264 51 256 l 213 256 b 235 279 226 256 235 264 b 292 394 238 358 256 394 b 564 246 356 394 407 246 z "},"¬":{"ha":833,"x_min":0,"x_max":0,"o":"m 518 124 l 703 124 b 725 146 717 124 725 132 l 725 575 b 703 597 725 589 717 597 l 92 597 b 69 575 79 597 69 589 l 69 397 b 92 376 69 385 79 376 l 494 376 l 494 146 b 518 124 494 132 503 124 z "},"×":{"ha":833,"x_min":0,"x_max":0,"o":"m 218 133 b 250 133 226 125 240 124 l 413 296 l 579 131 b 613 131 588 121 603 121 l 739 257 b 739 290 749 265 750 281 l 574 456 l 736 618 b 736 651 744 626 746 642 l 617 772 b 583 772 608 781 593 781 l 421 610 l 254 776 b 222 776 246 785 232 785 l 94 649 b 94 614 86 639 85 622 l 260 449 l 97 286 b 97 254 89 276 90 261 z "},"_":{"ha":788,"x_min":0,"x_max":0,"o":"m 69 -279 l 718 -279 b 739 -257 729 -279 739 -269 l 739 -81 b 718 -58 739 -69 729 -58 l 69 -58 b 47 -81 58 -58 47 -69 l 47 -257 b 69 -279 47 -269 58 -279 z "},"§":{"ha":764,"x_min":0,"x_max":0,"o":"m 356 -147 b 628 76 511 -147 628 -53 b 578 222 628 135 610 176 b 681 443 643 272 681 349 b 374 725 681 613 560 725 l 371 725 b 350 801 357 754 350 782 b 410 856 350 833 374 856 b 479 807 440 856 461 842 b 507 793 485 794 494 789 l 669 832 b 683 858 682 836 689 844 b 394 1039 642 982 544 1039 b 122 815 239 1039 122 944 b 176 667 122 756 142 714 b 65 443 107 617 65 538 b 374 161 65 278 190 161 l 382 161 b 400 88 393 133 400 107 b 340 35 400 58 376 35 b 271 83 310 35 288 50 b 243 99 265 96 256 101 l 82 58 b 67 32 68 56 61 46 b 356 -147 108 -90 206 -147 z m 374 328 b 261 443 307 328 261 374 b 374 557 261 511 307 557 b 485 443 439 557 485 511 b 374 328 485 374 439 328 z "},"¶":{"ha":918,"x_min":0,"x_max":0,"o":"m 393 -125 l 526 -125 b 549 -103 540 -125 549 -117 l 549 854 l 628 854 l 628 -103 b 650 -125 628 -117 636 -125 l 783 -125 b 806 -103 797 -125 806 -117 l 806 997 b 783 1019 806 1011 797 1019 l 414 1019 b 50 656 225 1019 50 893 b 371 293 50 436 199 311 l 371 -103 b 393 -125 371 -117 379 -125 z "},"#":{"ha":1090,"x_min":0,"x_max":0,"o":"m 163 0 l 331 0 b 354 19 343 0 351 7 l 399 222 l 565 222 l 522 24 b 542 0 518 8 526 0 l 708 0 b 732 19 721 0 729 7 l 776 222 l 906 222 b 929 242 918 222 926 229 l 964 400 b 943 425 967 415 958 425 l 821 425 l 860 600 l 989 600 b 1013 619 1001 600 1010 608 l 1046 779 b 1026 803 1050 794 1042 803 l 904 803 l 946 992 b 926 1015 950 1007 942 1015 l 758 1015 b 735 997 746 1015 738 1008 l 692 803 l 525 803 l 567 992 b 547 1015 571 1007 563 1015 l 381 1015 b 356 997 367 1015 358 1008 l 313 803 l 185 803 b 161 783 172 803 164 794 l 128 624 b 147 600 124 608 132 600 l 269 600 l 231 425 l 101 425 b 79 404 89 425 82 417 l 44 246 b 64 222 40 231 49 222 l 186 222 l 143 24 b 163 0 140 8 149 0 z m 443 425 l 481 600 l 649 600 l 610 425 z "},"|":{"ha":458,"x_min":0,"x_max":0,"o":"m 126 -153 l 332 -153 b 354 -131 344 -153 354 -143 l 354 1019 b 332 1042 354 1032 344 1042 l 126 1042 b 104 1019 114 1042 104 1032 l 104 -131 b 126 -153 104 -143 114 -153 z "},"†":{"ha":692,"x_min":0,"x_max":0,"o":"m 243 -125 l 449 -125 b 471 -103 463 -125 471 -117 l 471 578 l 619 578 b 640 600 632 578 640 586 l 640 767 b 619 788 640 779 632 788 l 471 788 l 471 997 b 449 1019 471 1011 463 1019 l 243 1019 b 221 997 229 1019 221 1011 l 221 788 l 72 788 b 51 767 60 788 51 779 l 51 600 b 72 578 51 586 60 578 l 221 578 l 221 -103 b 243 -125 221 -117 229 -125 z "},"‡":{"ha":692,"x_min":0,"x_max":0,"o":"m 72 121 l 221 121 l 221 -103 b 243 -125 221 -117 229 -125 l 449 -125 b 471 -103 463 -125 471 -117 l 471 121 l 619 121 b 640 142 632 121 640 129 l 640 308 b 619 331 640 322 632 331 l 471 331 l 471 578 l 619 578 b 640 600 632 578 640 586 l 640 767 b 619 788 640 779 632 788 l 471 788 l 471 997 b 449 1019 471 1011 463 1019 l 243 1019 b 221 997 229 1019 221 1011 l 221 788 l 72 788 b 51 767 60 788 51 779 l 51 600 b 72 578 51 586 60 578 l 221 578 l 221 331 l 72 331 b 51 308 60 331 51 322 l 51 142 b 72 121 51 129 60 121 z "},"&":{"ha":1036,"x_min":0,"x_max":0,"o":"m 503 -19 b 925 296 765 -19 925 108 b 888 425 925 342 910 389 l 981 425 b 1003 447 994 425 1003 433 l 1003 600 b 981 621 1003 613 994 621 l 631 621 b 608 600 617 621 608 613 l 608 439 b 618 425 608 431 610 425 l 625 425 b 689 336 665 425 689 376 b 506 200 689 250 632 200 b 328 322 388 200 328 247 b 457 425 328 385 374 425 l 499 425 b 519 447 511 425 519 433 l 519 600 b 499 621 519 613 511 621 l 454 621 b 358 715 392 621 358 660 b 471 819 358 776 404 819 b 594 726 531 819 572 788 b 621 713 600 714 608 710 l 824 754 b 840 781 838 757 844 767 b 467 1039 794 942 658 1039 b 99 757 254 1039 99 919 b 247 533 99 661 147 581 b 64 288 128 494 64 407 b 503 -19 64 107 222 -19 z "},"*":{"ha":708,"x_min":0,"x_max":0,"o":"m 185 471 b 215 474 196 463 207 464 l 354 618 l 493 474 b 524 471 501 464 514 463 l 585 514 b 592 544 596 522 599 532 l 506 706 l 640 793 b 649 822 653 800 654 811 l 617 892 b 588 903 610 903 600 907 l 439 851 l 417 1000 b 393 1019 414 1013 406 1019 l 317 1019 b 292 1000 303 1019 294 1013 l 269 851 l 121 903 b 93 892 108 907 99 903 l 60 822 b 68 793 54 811 57 800 l 204 706 l 117 544 b 124 514 111 532 114 522 z "},"°":{"ha":608,"x_min":0,"x_max":0,"o":"m 304 608 b 539 824 439 608 539 694 b 304 1039 539 953 439 1039 b 69 824 169 1039 69 953 b 304 608 69 694 169 608 z m 304 736 b 219 824 254 736 219 771 b 304 911 219 876 254 911 b 389 824 354 911 389 876 b 304 736 389 771 354 736 z "},"-":{"ha":638,"x_min":0,"x_max":0,"o":"m 99 342 l 539 342 b 561 364 553 342 561 350 l 561 542 b 539 563 561 554 553 563 l 99 563 b 76 542 85 563 76 554 l 76 364 b 99 342 76 350 85 342 z "},"‐":{"ha":638,"x_min":0,"x_max":0,"o":"m 99 342 l 539 342 b 561 364 553 342 561 350 l 561 542 b 539 563 561 554 553 563 l 99 563 b 76 542 85 563 76 554 l 76 364 b 99 342 76 350 85 342 z "},"‑":{"ha":638,"x_min":0,"x_max":0,"o":"m 99 342 l 539 342 b 561 364 553 342 561 350 l 561 542 b 539 563 561 554 553 563 l 99 563 b 76 542 85 563 76 554 l 76 364 b 99 342 76 350 85 342 z "},"­":{"ha":638,"x_min":0,"x_max":0,"o":"m 99 342 l 539 342 b 561 364 553 342 561 350 l 561 542 b 539 563 561 554 553 563 l 99 563 b 76 542 85 563 76 554 l 76 364 b 99 342 76 350 85 342 z "},"–":{"ha":694,"x_min":0,"x_max":0,"o":"m 22 342 l 672 342 b 694 364 686 342 694 350 l 694 542 b 672 563 694 554 686 563 l 22 563 b 0 542 8 563 0 554 l 0 364 b 22 342 0 350 8 342 z "},"—":{"ha":1389,"x_min":0,"x_max":0,"o":"m 22 342 l 1367 342 b 1389 364 1381 342 1389 350 l 1389 542 b 1367 563 1389 554 1381 563 l 22 563 b 0 542 8 563 0 554 l 0 364 b 22 342 0 350 8 342 z "},"(":{"ha":567,"x_min":0,"x_max":0,"o":"m 519 -208 b 539 -186 532 -208 539 -200 l 539 17 b 519 40 539 31 532 39 b 321 444 374 54 321 178 b 519 849 321 711 374 835 b 539 872 532 850 539 858 l 539 1075 b 518 1097 539 1089 532 1097 b 58 444 199 1082 58 839 b 519 -208 58 49 199 -193 z "},")":{"ha":567,"x_min":0,"x_max":0,"o":"m 50 -208 b 508 444 368 -193 508 50 b 49 1097 508 840 368 1082 b 28 1075 36 1097 28 1089 l 28 872 b 49 849 28 858 35 850 b 246 444 193 835 246 711 b 49 40 246 178 193 54 b 28 17 35 39 28 31 l 28 -186 b 50 -208 28 -200 36 -208 z "},"/":{"ha":624,"x_min":0,"x_max":0,"o":"m 46 -153 l 247 -153 b 271 -135 260 -153 268 -147 l 597 1017 b 579 1042 601 1032 594 1042 l 378 1042 b 353 1024 365 1042 357 1036 l 26 -128 b 46 -153 24 -143 29 -153 z "},"\\":{"ha":624,"x_min":0,"x_max":0,"o":"m 579 -153 b 597 -128 594 -153 601 -143 l 271 1024 b 247 1042 268 1036 260 1042 l 46 1042 b 26 1017 29 1042 24 1032 l 353 -135 b 378 -153 357 -147 365 -153 z "},"[":{"ha":549,"x_min":0,"x_max":0,"o":"m 103 -208 l 499 -208 b 521 -186 513 -208 521 -200 l 521 -1 b 499 19 521 11 513 19 l 332 19 l 332 869 l 499 869 b 521 892 513 869 521 878 l 521 1076 b 499 1099 521 1089 513 1099 l 103 1099 b 81 1076 89 1099 81 1089 l 81 -186 b 103 -208 81 -200 89 -208 z "},"]":{"ha":549,"x_min":0,"x_max":0,"o":"m 50 -208 l 446 -208 b 468 -186 460 -208 468 -200 l 468 1076 b 446 1099 468 1089 460 1099 l 50 1099 b 28 1076 36 1099 28 1089 l 28 892 b 50 869 28 878 36 869 l 217 869 l 217 19 l 50 19 b 28 -1 36 19 28 11 l 28 -186 b 50 -208 28 -200 36 -208 z "},"{":{"ha":615,"x_min":0,"x_max":0,"o":"m 536 -208 l 565 -208 b 588 -186 579 -208 588 -200 l 588 -15 b 565 7 588 -1 579 7 l 561 7 b 422 144 467 7 422 56 l 422 313 b 335 444 422 383 396 428 b 422 578 396 463 422 506 l 422 744 b 561 883 422 835 467 883 l 565 883 b 588 904 579 883 588 892 l 588 1076 b 565 1099 588 1089 579 1099 l 536 1099 b 172 753 319 1099 172 1014 l 172 619 b 122 546 172 558 157 546 l 78 546 b 56 524 64 546 56 536 l 56 367 b 78 344 56 353 64 344 l 122 344 b 172 271 157 344 172 332 l 172 136 b 536 -208 172 -124 319 -208 z "},"}":{"ha":615,"x_min":0,"x_max":0,"o":"m 50 -208 l 79 -208 b 443 136 296 -208 443 -124 l 443 271 b 493 344 443 332 458 344 l 538 344 b 560 367 550 344 560 353 l 560 524 b 538 546 560 536 550 546 l 493 546 b 443 619 458 546 443 558 l 443 753 b 79 1099 443 1014 296 1099 l 50 1099 b 28 1076 36 1099 28 1089 l 28 904 b 50 883 28 892 36 883 l 54 883 b 193 744 149 883 193 835 l 193 578 b 281 444 193 506 218 463 b 193 313 218 428 193 383 l 193 144 b 54 7 193 56 149 7 l 50 7 b 28 -15 36 7 28 -1 l 28 -186 b 50 -208 28 -200 36 -208 z "},"•":{"ha":561,"x_min":0,"x_max":0,"o":"m 281 233 b 475 428 388 233 475 321 b 281 622 475 535 388 622 b 86 428 174 622 86 535 b 281 233 86 321 174 233 z "},"@":{"ha":1522,"x_min":0,"x_max":0,"o":"m 750 -342 b 975 -318 842 -342 911 -333 b 990 -296 986 -317 990 -307 l 990 -171 b 967 -151 990 -156 982 -149 b 789 -167 913 -161 857 -167 b 261 317 479 -167 261 -15 b 774 832 261 664 485 832 b 1260 388 1079 832 1260 667 b 1169 168 1260 250 1224 168 b 1093 274 1118 168 1093 203 l 1093 636 b 1071 658 1093 650 1085 658 l 924 658 b 901 636 911 658 901 650 l 900 581 b 703 671 853 639 783 671 b 392 329 517 671 392 532 b 703 -14 392 125 517 -14 b 929 121 803 -14 883 35 b 1132 -14 956 36 1036 -14 b 1451 388 1324 -14 1451 140 b 774 1007 1451 747 1186 1007 b 69 317 368 1007 69 729 b 750 -342 69 -60 333 -342 z m 751 182 b 615 329 672 182 615 242 b 751 475 615 415 672 475 b 888 329 831 475 888 415 b 751 182 888 242 831 182 z "},"·":{"ha":481,"x_min":0,"x_max":0,"o":"m 244 339 b 389 478 326 339 389 396 b 244 617 389 560 326 617 b 99 478 163 617 99 560 b 244 339 99 396 163 339 z "},"A":{"ha":1069,"x_min":0,"x_max":0,"o":"m 39 0 l 267 0 b 292 18 279 0 288 6 l 347 175 l 718 175 l 774 18 b 799 0 778 6 786 0 l 1032 0 b 1049 25 1047 0 1054 11 l 647 1003 b 622 1019 643 1014 635 1019 l 447 1019 b 422 1003 436 1019 426 1014 l 21 25 b 39 0 15 11 22 0 z m 421 386 l 531 700 l 643 386 z "},"B":{"ha":971,"x_min":0,"x_max":0,"o":"m 121 0 l 493 0 b 910 299 786 0 910 108 b 715 538 910 411 846 501 b 858 753 810 578 858 657 b 497 1019 858 910 757 1019 l 121 1019 b 99 997 107 1019 99 1011 l 99 22 b 121 0 99 8 107 0 z m 490 811 b 606 713 557 811 606 779 b 490 614 606 646 557 614 l 350 614 l 350 811 z m 508 424 b 644 317 592 424 644 389 b 508 208 644 244 592 208 l 350 208 l 350 424 z "},"C":{"ha":1122,"x_min":0,"x_max":0,"o":"m 585 -19 b 1060 313 829 -19 1000 118 b 1043 336 1063 324 1057 332 l 832 392 b 806 376 819 396 811 390 b 586 232 768 274 688 232 b 338 510 439 232 338 339 b 586 788 338 679 438 788 b 781 681 674 788 739 751 b 808 669 788 669 797 665 l 1021 726 b 1035 754 1035 729 1040 740 b 586 1039 963 936 808 1039 b 69 510 290 1039 69 826 b 585 -19 69 193 275 -19 z "},"D":{"ha":1085,"x_min":0,"x_max":0,"o":"m 121 0 l 497 0 b 1014 510 826 0 1014 182 b 497 1019 1014 840 826 1019 l 121 1019 b 99 997 107 1019 99 1011 l 99 22 b 121 0 99 8 107 0 z m 472 781 b 750 510 653 781 750 692 b 472 239 750 328 653 239 l 354 239 l 354 781 z "},"E":{"ha":881,"x_min":0,"x_max":0,"o":"m 121 0 l 808 0 b 831 22 821 0 831 8 l 831 201 b 808 224 831 215 821 224 l 356 224 l 356 413 l 740 413 b 763 435 754 413 763 421 l 763 607 b 740 629 763 621 754 629 l 356 629 l 356 796 l 792 796 b 814 818 804 796 814 804 l 814 997 b 792 1019 814 1011 804 1019 l 121 1019 b 99 997 107 1019 99 1011 l 99 22 b 121 0 99 8 107 0 z "},"F":{"ha":835,"x_min":0,"x_max":0,"o":"m 121 0 l 336 0 b 358 22 350 0 358 8 l 358 363 l 703 363 b 725 383 717 363 725 371 l 725 571 b 703 593 725 585 717 593 l 358 593 l 358 789 l 769 789 b 792 810 783 789 792 797 l 792 997 b 769 1019 792 1011 783 1019 l 121 1019 b 99 997 107 1019 99 1011 l 99 22 b 121 0 99 8 107 0 z "},"G":{"ha":1143,"x_min":0,"x_max":0,"o":"m 585 -19 b 1074 433 901 -19 1074 178 l 1074 553 b 1051 575 1074 567 1064 575 l 617 575 b 594 553 603 575 594 567 l 594 404 b 617 382 594 390 603 382 l 813 382 b 593 229 799 283 711 229 b 338 508 440 229 338 332 b 593 789 338 685 438 789 b 788 688 675 789 747 753 b 815 675 794 676 803 672 l 1028 733 b 1042 761 1042 736 1047 747 b 589 1039 974 939 811 1039 b 69 510 292 1039 69 825 b 585 -19 69 194 276 -19 z "},"H":{"ha":1093,"x_min":0,"x_max":0,"o":"m 121 0 l 336 0 b 358 22 350 0 358 8 l 358 399 l 735 399 l 735 22 b 757 0 735 8 743 0 l 972 0 b 994 22 985 0 994 8 l 994 997 b 972 1019 994 1011 985 1019 l 757 1019 b 735 997 743 1019 735 1011 l 735 643 l 358 643 l 358 997 b 336 1019 358 1011 350 1019 l 121 1019 b 99 997 107 1019 99 1011 l 99 22 b 121 0 99 8 107 0 z "},"I":{"ha":457,"x_min":0,"x_max":0,"o":"m 121 0 l 336 0 b 358 22 350 0 358 8 l 358 997 b 336 1019 358 1011 350 1019 l 121 1019 b 99 997 107 1019 99 1011 l 99 22 b 121 0 99 8 107 0 z "},"J":{"ha":807,"x_min":0,"x_max":0,"o":"m 350 -19 b 715 372 572 -19 715 92 l 715 997 b 693 1019 715 1011 707 1019 l 200 1019 b 178 997 186 1019 178 1011 l 178 797 b 200 776 178 785 186 776 l 456 776 l 456 390 b 344 232 456 297 429 232 b 244 308 292 232 261 263 b 217 324 240 321 231 328 l 26 272 b 11 244 13 268 7 260 b 350 -19 51 85 167 -19 z "},"K":{"ha":1044,"x_min":0,"x_max":0,"o":"m 121 0 l 336 0 b 358 22 350 0 358 8 l 358 286 l 489 436 l 724 15 b 749 0 729 6 738 0 l 997 0 b 1013 26 1015 0 1021 11 l 664 636 l 974 993 b 961 1019 985 1007 979 1019 l 715 1019 b 689 1007 704 1019 696 1015 l 358 603 l 358 997 b 336 1019 358 1011 350 1019 l 121 1019 b 99 997 107 1019 99 1011 l 99 22 b 121 0 99 8 107 0 z "},"L":{"ha":865,"x_min":0,"x_max":0,"o":"m 121 0 l 806 0 b 826 22 818 0 826 8 l 826 225 b 806 246 826 238 818 246 l 358 246 l 358 997 b 336 1019 358 1011 350 1019 l 121 1019 b 99 997 107 1019 99 1011 l 99 22 b 121 0 99 8 107 0 z "},"M":{"ha":1343,"x_min":0,"x_max":0,"o":"m 121 0 l 325 0 b 347 22 339 0 347 8 l 347 592 l 582 210 b 607 194 588 199 596 194 l 736 194 b 761 210 747 194 756 199 l 996 601 l 996 22 b 1018 0 996 8 1004 0 l 1222 0 b 1244 22 1236 0 1244 8 l 1244 997 b 1222 1019 1244 1011 1236 1019 l 1001 1019 b 976 1004 990 1019 982 1014 l 678 493 l 371 1004 b 346 1019 365 1015 357 1019 l 121 1019 b 99 997 107 1019 99 1011 l 99 22 b 121 0 99 8 107 0 z "},"N":{"ha":1083,"x_min":0,"x_max":0,"o":"m 121 0 l 325 0 b 347 22 339 0 347 8 l 347 624 l 713 15 b 739 0 718 6 726 0 l 963 0 b 985 22 976 0 985 8 l 985 997 b 963 1019 985 1011 976 1019 l 758 1019 b 736 997 744 1019 736 1011 l 736 399 l 372 1004 b 346 1019 365 1014 358 1019 l 121 1019 b 99 997 107 1019 99 1011 l 99 22 b 121 0 99 8 107 0 z "},"O":{"ha":1193,"x_min":0,"x_max":0,"o":"m 596 -19 b 1122 510 899 -19 1122 194 b 596 1039 1122 825 899 1039 b 69 510 293 1039 69 825 b 596 -19 69 194 293 -19 z m 596 232 b 338 510 442 232 338 346 b 596 788 338 674 442 788 b 854 510 750 788 854 674 b 596 232 854 346 750 232 z "},"P":{"ha":944,"x_min":0,"x_max":0,"o":"m 121 0 l 332 0 b 354 22 346 0 354 8 l 354 272 l 461 272 b 889 646 743 272 889 401 b 461 1019 889 892 743 1019 l 121 1019 b 99 997 107 1019 99 1011 l 99 22 b 121 0 99 8 107 0 z m 454 803 b 625 649 560 803 625 760 b 454 489 625 532 560 489 l 354 489 l 354 803 z "},"Q":{"ha":1208,"x_min":0,"x_max":0,"o":"m 615 0 l 1117 0 b 1139 22 1129 0 1139 8 l 1139 214 b 1117 235 1139 226 1129 235 l 950 235 b 1096 561 1043 304 1096 425 b 593 1039 1096 826 901 1039 b 69 511 278 1039 69 821 b 615 0 69 203 269 0 z m 583 242 b 338 514 433 242 338 356 b 583 788 338 672 433 788 b 829 515 735 788 829 672 b 583 242 829 356 735 242 z "},"R":{"ha":961,"x_min":0,"x_max":0,"o":"m 121 0 l 332 0 b 354 22 346 0 354 8 l 354 286 l 461 286 b 510 288 478 286 494 286 l 639 17 b 664 0 643 6 651 0 l 901 0 b 918 26 918 0 926 11 l 749 354 b 889 653 844 417 889 519 b 461 1019 889 893 757 1019 l 121 1019 b 99 997 107 1019 99 1011 l 99 22 b 121 0 99 8 107 0 z m 457 803 b 625 653 564 803 625 760 b 457 503 625 544 564 503 l 354 503 l 354 803 z "},"S":{"ha":842,"x_min":0,"x_max":0,"o":"m 425 -19 b 807 290 650 -19 807 110 b 538 611 807 458 718 550 l 461 636 b 319 743 357 671 319 700 b 417 811 319 786 361 811 b 540 719 468 811 510 792 b 568 706 546 707 554 701 l 771 760 b 785 788 783 763 790 774 b 421 1039 728 961 592 1039 b 56 729 218 1039 56 911 b 310 422 56 578 154 476 l 415 385 b 544 278 500 354 544 329 b 432 208 544 231 499 208 b 268 313 350 208 299 239 b 240 326 263 325 253 329 l 47 279 b 32 251 33 275 28 265 b 425 -19 89 76 232 -19 z "},"T":{"ha":965,"x_min":0,"x_max":0,"o":"m 375 0 l 590 0 b 613 22 604 0 613 8 l 613 776 l 904 776 b 926 797 918 776 926 785 l 926 997 b 904 1019 926 1011 918 1019 l 60 1019 b 39 997 46 1019 39 1011 l 39 797 b 60 776 39 785 46 776 l 353 776 l 353 22 b 375 0 353 8 361 0 z "},"U":{"ha":1067,"x_min":0,"x_max":0,"o":"m 533 -19 b 974 415 746 -19 974 92 l 974 997 b 951 1019 974 1011 965 1019 l 736 1019 b 714 997 724 1019 714 1011 l 714 467 b 533 232 714 306 639 232 b 351 467 425 232 351 306 l 351 997 b 331 1019 351 1011 343 1019 l 114 1019 b 93 997 101 1019 93 1011 l 93 415 b 533 -19 93 92 321 -19 z "},"V":{"ha":1060,"x_min":0,"x_max":0,"o":"m 442 0 l 617 0 b 643 17 629 0 638 6 l 1038 994 b 1021 1019 1044 1008 1036 1019 l 775 1019 b 749 1001 763 1019 753 1014 l 533 365 l 314 1001 b 288 1019 310 1014 300 1019 l 39 1019 b 21 994 24 1019 15 1008 l 417 17 b 442 0 422 6 431 0 z "},"W":{"ha":1564,"x_min":0,"x_max":0,"o":"m 403 0 l 576 0 b 600 18 589 0 597 6 l 782 601 l 963 18 b 986 0 967 6 975 0 l 1160 0 b 1185 17 1172 0 1181 6 l 1543 994 b 1525 1019 1549 1008 1540 1019 l 1279 1019 b 1254 1001 1267 1019 1258 1014 l 1086 428 l 894 1001 b 871 1019 890 1014 882 1019 l 699 1019 b 674 1001 686 1019 678 1014 l 496 429 l 314 1001 b 289 1019 311 1014 301 1019 l 39 1019 b 21 994 22 1019 15 1008 l 379 17 b 403 0 382 6 392 0 z "},"X":{"ha":993,"x_min":0,"x_max":0,"o":"m 42 0 l 282 0 b 307 15 293 0 301 6 l 492 338 l 678 15 b 704 0 685 6 692 0 l 953 0 b 967 26 969 0 976 13 l 658 525 l 947 993 b 932 1019 956 1007 949 1019 l 693 1019 b 668 1004 682 1019 674 1014 l 501 711 l 333 1004 b 308 1019 328 1014 321 1019 l 63 1019 b 47 993 44 1019 39 1007 l 336 524 l 26 26 b 42 0 18 13 24 0 z "},"Y":{"ha":1028,"x_min":0,"x_max":0,"o":"m 407 0 l 622 0 b 644 22 635 0 644 8 l 644 378 l 1007 993 b 990 1019 1015 1008 1008 1019 l 746 1019 b 721 1004 733 1019 725 1015 l 518 607 l 313 1004 b 286 1019 307 1014 299 1019 l 38 1019 b 22 993 21 1019 14 1008 l 385 374 l 385 22 b 407 0 385 8 393 0 z "},"Z":{"ha":867,"x_min":0,"x_max":0,"o":"m 49 0 l 808 0 b 831 22 822 0 831 8 l 831 222 b 808 243 831 235 822 243 l 413 243 l 813 906 b 819 932 817 914 819 922 l 819 997 b 799 1019 819 1011 811 1019 l 75 1019 b 53 997 61 1019 53 1011 l 53 797 b 75 776 53 785 61 776 l 432 776 l 35 114 b 26 88 29 106 26 97 l 26 22 b 49 0 26 8 35 0 z "},"a":{"ha":910,"x_min":0,"x_max":0,"o":"m 386 -14 b 607 88 479 -14 554 22 l 610 22 b 632 0 610 8 619 0 l 807 0 b 829 22 821 0 829 8 l 829 717 b 807 738 829 729 821 738 l 632 738 b 610 717 619 738 610 731 l 607 651 b 386 751 554 715 479 751 b 43 369 181 751 43 599 b 386 -14 43 140 181 -14 z m 447 206 b 296 369 357 206 296 274 b 447 532 296 465 357 532 b 599 369 538 532 599 465 b 447 206 599 274 538 206 z "},"b":{"ha":910,"x_min":0,"x_max":0,"o":"m 524 -14 b 867 369 729 -14 867 140 b 524 751 867 599 729 751 b 331 681 446 751 381 726 l 331 1019 b 308 1042 331 1033 322 1042 l 103 1042 b 81 1019 89 1042 81 1033 l 81 22 b 103 0 81 8 89 0 l 276 0 b 300 22 290 0 300 8 l 303 88 b 524 -14 356 22 431 -14 z m 463 206 b 311 369 372 206 311 274 b 463 532 311 465 372 532 b 614 369 553 532 614 465 b 463 206 614 274 553 206 z "},"c":{"ha":825,"x_min":0,"x_max":0,"o":"m 425 -14 b 789 219 592 -14 732 61 b 775 247 794 233 789 244 l 588 294 b 560 279 575 297 567 292 b 439 206 536 228 490 206 b 297 369 344 206 297 278 b 439 532 297 461 344 532 b 560 463 492 532 533 511 b 589 449 567 450 576 446 l 761 497 b 776 525 775 500 781 511 b 425 751 722 683 590 751 b 43 369 190 751 43 596 b 425 -14 43 142 190 -14 z "},"d":{"ha":910,"x_min":0,"x_max":0,"o":"m 386 -14 b 607 88 479 -14 554 22 l 610 22 b 632 0 610 8 619 0 l 807 0 b 829 22 821 0 829 8 l 829 1019 b 807 1042 829 1033 821 1042 l 601 1042 b 579 1019 588 1042 579 1033 l 579 681 b 386 751 529 726 464 751 b 43 369 181 751 43 599 b 386 -14 43 140 181 -14 z m 447 206 b 296 369 357 206 296 274 b 447 532 296 465 357 532 b 599 369 538 532 599 465 b 447 206 599 274 538 206 z "},"e":{"ha":833,"x_min":0,"x_max":0,"o":"m 429 -14 b 771 167 569 -14 703 40 b 760 196 778 181 772 190 l 582 256 b 553 246 571 258 561 256 b 431 193 526 210 485 193 b 296 306 361 193 314 233 l 771 306 b 794 326 785 306 793 313 b 429 751 808 578 675 751 b 43 369 194 751 43 594 b 429 -14 43 143 194 -14 z m 426 556 b 549 442 492 556 535 515 l 296 442 b 426 556 311 517 357 556 z "},"f":{"ha":596,"x_min":0,"x_max":0,"o":"m 146 0 l 353 0 b 375 22 365 0 375 8 l 375 524 l 536 524 b 558 546 550 524 558 532 l 558 713 b 536 735 558 725 550 735 l 371 735 l 369 744 b 442 842 369 808 397 842 b 503 811 468 842 485 835 b 532 804 511 801 521 800 l 674 869 b 685 899 686 875 690 886 b 413 1054 624 1006 531 1054 b 125 738 221 1054 125 924 l 125 735 l 39 735 b 17 713 25 735 17 725 l 17 546 b 39 524 17 532 25 524 l 125 524 l 125 22 b 146 0 125 8 133 0 z "},"g":{"ha":910,"x_min":0,"x_max":0,"o":"m 422 -317 b 829 72 653 -317 829 -199 l 829 717 b 807 738 829 729 821 738 l 632 738 b 610 717 619 738 610 731 l 607 651 b 386 751 554 715 478 751 b 43 375 181 751 43 597 b 386 -1 43 154 181 -1 b 579 69 463 -1 529 24 l 579 35 b 415 -108 579 -61 511 -108 b 265 -36 339 -108 294 -78 b 236 -25 257 -25 247 -21 l 76 -75 b 63 -101 63 -79 57 -87 b 422 -317 114 -236 249 -317 z m 447 206 b 296 369 358 206 296 274 b 447 532 296 465 358 532 b 599 369 536 532 599 465 b 447 206 599 274 536 206 z "},"h":{"ha":885,"x_min":0,"x_max":0,"o":"m 103 0 l 308 0 b 331 22 322 0 331 8 l 331 369 b 454 532 331 478 382 532 b 560 388 528 532 560 490 l 560 22 b 582 0 560 8 568 0 l 788 0 b 810 22 801 0 810 8 l 810 481 b 540 751 810 650 711 751 b 331 664 454 751 382 724 l 331 1019 b 308 1042 331 1033 322 1042 l 103 1042 b 81 1019 89 1042 81 1033 l 81 22 b 103 0 81 8 89 0 z "},"i":{"ha":411,"x_min":0,"x_max":0,"o":"m 206 835 b 343 964 283 835 343 886 b 206 1094 343 1042 283 1094 b 68 964 128 1094 68 1042 b 206 835 68 886 128 835 z m 103 0 l 308 0 b 331 22 322 0 331 8 l 331 717 b 308 738 331 729 322 738 l 103 738 b 81 717 89 738 81 729 l 81 22 b 103 0 81 8 89 0 z "},"j":{"ha":411,"x_min":0,"x_max":0,"o":"m 206 835 b 343 964 283 835 343 886 b 206 1094 343 1042 283 1094 b 68 964 128 1094 68 1042 b 206 835 68 886 128 835 z m 32 -318 b 331 11 242 -321 331 -196 l 331 717 b 308 738 331 729 322 738 l 103 738 b 81 717 89 738 81 729 l 81 -14 b 21 -106 81 -79 60 -106 b -29 -75 -4 -106 -19 -96 b -57 -62 -36 -64 -44 -58 l -215 -111 b -229 -137 -228 -115 -233 -125 b 32 -318 -189 -258 -83 -315 z "},"k":{"ha":882,"x_min":0,"x_max":0,"o":"m 103 0 l 308 0 b 331 22 322 0 331 8 l 331 207 l 422 301 l 574 15 b 600 0 579 4 588 0 l 831 0 b 846 26 849 0 854 11 l 597 483 l 817 711 b 806 738 831 725 824 738 l 563 738 b 536 725 553 738 544 735 l 331 490 l 331 1019 b 308 1042 331 1033 322 1042 l 103 1042 b 81 1019 89 1042 81 1033 l 81 22 b 103 0 81 8 89 0 z "},"l":{"ha":411,"x_min":0,"x_max":0,"o":"m 103 0 l 308 0 b 331 22 322 0 331 8 l 331 1019 b 308 1042 331 1033 322 1042 l 103 1042 b 81 1019 89 1042 81 1033 l 81 22 b 103 0 81 8 89 0 z "},"m":{"ha":1342,"x_min":0,"x_max":0,"o":"m 103 0 l 308 0 b 331 22 322 0 331 8 l 331 369 b 449 532 331 478 378 532 b 549 388 517 532 549 490 l 549 22 b 571 0 549 8 557 0 l 776 0 b 799 22 790 0 799 8 l 799 369 b 917 532 799 478 846 532 b 1017 388 985 532 1017 490 l 1017 22 b 1039 0 1017 8 1026 0 l 1246 0 b 1267 22 1258 0 1267 8 l 1267 481 b 999 751 1267 650 1168 751 b 760 639 897 751 813 715 b 531 751 715 711 636 751 b 304 646 435 751 357 718 l 300 717 b 278 738 300 732 292 738 l 103 738 b 81 717 89 738 81 729 l 81 22 b 103 0 81 8 89 0 z "},"n":{"ha":885,"x_min":0,"x_max":0,"o":"m 103 0 l 308 0 b 331 22 322 0 331 8 l 331 369 b 454 532 331 478 382 532 b 560 388 528 532 560 490 l 560 22 b 582 0 560 8 568 0 l 788 0 b 810 22 801 0 810 8 l 810 481 b 536 751 810 650 711 751 b 303 651 439 751 357 718 l 300 717 b 276 738 300 731 290 738 l 103 738 b 81 717 89 738 81 729 l 81 22 b 103 0 81 8 89 0 z "},"o":{"ha":894,"x_min":0,"x_max":0,"o":"m 447 -14 b 851 369 693 -14 851 143 b 447 751 851 594 693 751 b 43 369 201 751 43 594 b 447 -14 43 143 201 -14 z m 447 206 b 296 369 357 206 296 274 b 447 532 296 465 357 532 b 599 369 538 532 599 465 b 447 206 599 274 538 206 z "},"p":{"ha":910,"x_min":0,"x_max":0,"o":"m 103 -303 l 308 -303 b 331 -281 322 -303 331 -294 l 331 57 b 524 -14 381 11 446 -14 b 867 369 729 -14 867 140 b 524 751 867 599 729 751 b 303 651 431 751 356 715 l 300 717 b 276 738 300 731 290 738 l 103 738 b 81 717 89 738 81 729 l 81 -281 b 103 -303 81 -294 89 -303 z m 463 206 b 311 369 372 206 311 274 b 463 532 311 465 372 532 b 614 369 553 532 614 465 b 463 206 614 274 553 206 z "},"q":{"ha":910,"x_min":0,"x_max":0,"o":"m 601 -303 l 807 -303 b 829 -281 821 -303 829 -294 l 829 717 b 807 738 829 729 821 738 l 632 738 b 610 717 619 738 610 731 l 607 651 b 386 751 554 715 479 751 b 43 369 181 751 43 599 b 386 -14 43 140 181 -14 b 579 57 464 -14 529 11 l 579 -281 b 601 -303 579 -294 588 -303 z m 447 206 b 296 369 357 206 296 274 b 447 532 296 465 357 532 b 599 369 538 532 599 465 b 447 206 599 274 538 206 z "},"r":{"ha":613,"x_min":0,"x_max":0,"o":"m 103 0 l 308 0 b 331 22 322 0 331 8 l 331 360 b 497 515 331 468 424 515 b 568 508 526 515 549 511 b 593 526 583 506 593 513 l 593 717 b 574 742 593 729 586 738 b 521 747 558 746 540 747 b 304 642 433 747 354 715 l 300 717 b 276 738 300 731 290 738 l 103 738 b 81 717 89 738 81 729 l 81 22 b 103 0 81 8 89 0 z "},"s":{"ha":703,"x_min":0,"x_max":0,"o":"m 357 -14 b 675 219 542 -14 675 78 b 418 469 675 346 613 421 l 392 476 b 310 532 336 490 310 507 b 368 569 310 558 335 569 b 460 517 413 569 439 551 b 486 503 465 506 474 500 l 647 540 b 663 567 663 543 668 553 b 358 751 617 693 515 751 b 56 524 179 751 56 657 b 314 267 56 411 122 317 l 342 260 b 419 207 403 243 419 228 b 349 168 419 181 392 168 b 236 226 301 168 261 186 b 208 239 229 238 221 242 l 42 204 b 26 179 28 201 21 192 b 357 -14 74 54 190 -14 z "},"t":{"ha":640,"x_min":0,"x_max":0,"o":"m 383 -14 b 638 135 481 -14 585 29 b 629 169 646 151 642 164 l 489 229 b 461 224 475 236 468 233 b 421 197 449 204 438 197 b 365 289 382 197 365 226 l 365 524 l 513 524 b 535 546 526 524 535 532 l 535 713 b 513 735 535 725 526 735 l 365 735 l 365 908 b 343 931 365 922 357 931 l 138 931 b 115 908 124 931 115 922 l 115 735 l 28 735 b 6 713 14 735 6 725 l 6 546 b 28 524 6 532 14 524 l 115 524 l 115 313 b 383 -14 115 101 197 -14 z "},"u":{"ha":882,"x_min":0,"x_max":0,"o":"m 347 -14 b 579 89 444 -14 525 19 l 582 22 b 606 0 582 7 592 0 l 779 0 b 801 22 793 0 801 8 l 801 717 b 779 738 801 729 793 738 l 574 738 b 551 717 560 738 551 729 l 551 368 b 429 206 551 260 501 206 b 325 350 357 206 325 247 l 325 717 b 303 738 325 729 317 738 l 97 738 b 75 717 83 738 75 729 l 75 257 b 347 -14 75 89 174 -14 z "},"v":{"ha":851,"x_min":0,"x_max":0,"o":"m 360 0 l 492 0 b 517 17 504 0 513 6 l 829 713 b 811 738 835 728 828 738 l 601 738 b 576 721 589 738 581 732 l 432 335 l 286 721 b 261 738 282 732 274 738 l 40 738 b 22 713 24 738 17 728 l 335 17 b 360 0 339 6 347 0 z "},"w":{"ha":1218,"x_min":0,"x_max":0,"o":"m 301 0 l 433 0 b 458 17 446 0 453 7 l 614 404 l 760 18 b 785 0 764 6 772 0 l 917 0 b 940 17 928 0 938 6 l 1196 713 b 1178 738 1200 728 1193 738 l 982 738 b 957 719 971 738 961 732 l 843 374 l 713 722 b 688 739 708 733 700 739 l 557 739 b 532 722 544 739 536 733 l 393 375 l 288 719 b 263 738 283 733 274 738 l 40 738 b 22 713 24 738 17 728 l 276 17 b 301 0 281 6 289 0 z "},"x":{"ha":829,"x_min":0,"x_max":0,"o":"m 40 0 l 253 0 b 279 14 264 0 274 4 l 411 214 l 539 14 b 564 0 544 4 553 0 l 788 0 b 801 26 804 0 811 13 l 560 376 l 792 711 b 778 738 801 726 796 738 l 567 738 b 539 724 556 738 546 733 l 419 540 l 300 724 b 274 738 294 733 285 738 l 50 738 b 36 711 33 738 26 726 l 268 376 l 28 26 b 40 0 18 13 24 0 z "},"y":{"ha":861,"x_min":0,"x_max":0,"o":"m 200 -303 l 406 -303 b 431 -286 417 -303 426 -297 l 839 713 b 822 738 846 728 838 738 l 619 738 b 593 721 607 738 599 732 l 440 331 l 288 721 b 263 738 282 732 274 738 l 40 738 b 22 713 24 738 17 728 l 315 53 l 183 -278 b 200 -303 178 -292 185 -303 z "},"z":{"ha":724,"x_min":0,"x_max":0,"o":"m 60 0 l 663 0 b 685 22 676 0 685 8 l 685 188 b 663 210 685 201 676 210 l 394 210 l 671 638 b 679 664 676 646 679 654 l 679 717 b 657 738 679 729 671 738 l 69 738 b 47 717 56 738 47 729 l 47 550 b 69 528 47 536 56 528 l 321 528 l 46 101 b 38 74 40 93 38 85 l 38 22 b 60 0 38 8 46 0 z "},"ﬁ":{"ha":965,"x_min":0,"x_max":0,"o":"m 760 819 b 897 951 838 819 897 874 b 760 1083 897 1029 838 1083 b 622 951 682 1083 622 1029 b 760 819 622 874 682 819 z m 146 0 l 353 0 b 375 22 365 0 375 8 l 375 524 l 635 524 l 635 22 b 657 0 635 8 643 0 l 863 0 b 885 22 876 0 885 8 l 885 713 b 863 735 885 725 876 735 l 375 735 l 375 742 b 458 842 375 807 407 842 b 525 826 485 842 504 838 b 553 839 540 819 550 825 l 581 986 b 568 1014 583 997 578 1008 b 408 1054 522 1040 469 1054 b 125 738 224 1054 125 924 l 125 735 l 39 735 b 17 713 25 735 17 725 l 17 546 b 39 524 17 532 25 524 l 125 524 l 125 22 b 146 0 125 8 133 0 z "},"ﬂ":{"ha":965,"x_min":0,"x_max":0,"o":"m 146 0 l 353 0 b 375 22 365 0 375 8 l 375 524 l 521 524 b 543 546 535 524 543 532 l 543 713 b 521 735 543 725 535 735 l 375 735 l 375 742 b 458 842 375 807 407 842 b 525 826 485 842 504 838 b 553 839 540 819 550 825 l 581 986 b 568 1014 583 997 578 1008 b 408 1054 522 1040 469 1054 b 125 738 224 1054 125 924 l 125 735 l 39 735 b 17 713 25 735 17 725 l 17 546 b 39 524 17 532 25 524 l 125 524 l 125 22 b 146 0 125 8 133 0 z m 657 0 l 863 0 b 885 22 876 0 885 8 l 885 1019 b 863 1042 885 1033 876 1042 l 657 1042 b 635 1019 643 1042 635 1033 l 635 22 b 657 0 635 8 643 0 z "},"ﬃ":{"ha":1472,"x_min":0,"x_max":0,"o":"m 1265 819 b 1404 951 1344 819 1404 874 b 1265 1083 1404 1029 1344 1083 b 1128 951 1188 1083 1128 1029 b 1265 819 1128 874 1188 819 z m 150 0 l 356 0 b 378 22 369 0 378 8 l 378 524 l 639 524 l 639 22 b 660 0 639 8 647 0 l 867 0 b 889 22 879 0 889 8 l 889 524 l 1140 524 l 1140 22 b 1163 0 1140 8 1149 0 l 1369 0 b 1390 22 1382 0 1390 8 l 1390 713 b 1369 735 1390 725 1382 735 l 889 735 l 889 742 b 972 842 889 807 921 842 b 1039 826 999 842 1018 838 b 1067 839 1054 819 1064 825 l 1094 986 b 1082 1014 1097 997 1092 1008 b 922 1054 1036 1040 983 1054 b 639 738 738 1054 639 924 l 639 735 l 375 735 l 374 744 b 461 842 374 810 401 842 b 554 818 494 842 521 835 b 583 829 567 813 578 815 l 639 967 b 631 996 644 979 642 988 b 422 1054 568 1035 497 1054 b 128 735 233 1054 131 919 l 39 735 b 17 713 25 735 17 725 l 17 546 b 39 524 17 532 25 524 l 128 524 l 128 22 b 150 0 128 8 136 0 z "},"ﬄ":{"ha":1479,"x_min":0,"x_max":0,"o":"m 150 0 l 356 0 b 378 22 369 0 378 8 l 378 524 l 639 524 l 639 22 b 660 0 639 8 647 0 l 867 0 b 889 22 879 0 889 8 l 889 524 l 1035 524 b 1057 546 1049 524 1057 532 l 1057 713 b 1035 735 1057 725 1049 735 l 889 735 l 889 742 b 972 842 889 807 921 842 b 1039 826 999 842 1018 838 b 1067 839 1054 819 1064 825 l 1094 986 b 1082 1014 1097 997 1092 1008 b 922 1054 1036 1040 983 1054 b 639 738 738 1054 639 924 l 639 735 l 375 735 l 374 744 b 461 842 374 810 401 842 b 554 818 494 842 521 835 b 583 829 567 813 578 815 l 639 967 b 631 996 644 979 642 988 b 422 1054 568 1035 497 1054 b 128 735 232 1054 131 919 l 39 735 b 17 713 25 735 17 725 l 17 546 b 39 524 17 532 25 524 l 128 524 l 128 22 b 150 0 128 8 136 0 z m 1171 0 l 1376 0 b 1399 22 1390 0 1399 8 l 1399 1019 b 1376 1042 1399 1033 1390 1042 l 1171 1042 b 1149 1019 1157 1042 1149 1033 l 1149 22 b 1171 0 1149 8 1157 0 z "},"ﬀ":{"ha":1110,"x_min":0,"x_max":0,"o":"m 150 0 l 356 0 b 378 22 369 0 378 8 l 378 524 l 639 524 l 639 22 b 660 0 639 8 647 0 l 867 0 b 889 22 879 0 889 8 l 889 524 l 1050 524 b 1072 546 1064 524 1072 532 l 1072 713 b 1050 735 1072 725 1064 735 l 885 735 l 883 744 b 956 842 883 808 910 842 b 1017 811 982 842 1000 833 b 1046 804 1025 801 1035 800 l 1188 869 b 1199 899 1200 875 1204 886 b 926 1054 1138 1006 1044 1054 b 639 735 736 1054 640 919 l 375 735 l 374 744 b 461 842 374 810 401 842 b 554 818 494 842 521 835 b 583 829 567 813 578 815 l 639 967 b 631 996 644 979 642 988 b 422 1054 568 1035 497 1054 b 128 735 232 1054 131 919 l 39 735 b 17 713 25 735 17 725 l 17 546 b 39 524 17 532 25 524 l 128 524 l 128 22 b 150 0 128 8 136 0 z "},"©":{"ha":1193,"x_min":0,"x_max":0,"o":"m 596 -19 b 1126 510 901 -19 1126 197 b 596 1039 1126 822 901 1039 b 67 510 292 1039 67 822 b 596 -19 67 197 292 -19 z m 596 101 b 192 510 358 101 192 263 b 596 918 192 757 358 918 b 1000 510 833 918 1000 757 b 596 101 1000 263 833 101 z m 599 224 b 865 392 718 224 822 279 b 850 419 869 406 864 415 l 722 453 b 696 438 710 456 701 451 b 608 385 676 400 644 385 b 501 510 538 385 501 439 b 607 635 501 579 536 635 b 694 586 643 635 675 619 b 724 572 701 574 711 568 l 840 604 b 856 632 854 608 861 618 b 597 796 815 746 715 796 b 315 510 424 796 315 679 b 599 224 315 340 424 224 z "},"®":{"ha":858,"x_min":0,"x_max":0,"o":"m 429 321 b 792 686 640 321 792 469 b 429 1051 792 903 640 1051 b 67 686 217 1051 67 903 b 429 321 67 469 217 321 z m 429 404 b 151 686 256 404 151 524 b 429 968 151 849 256 968 b 706 686 603 968 706 849 b 429 404 706 524 603 404 z m 313 528 l 371 528 b 381 538 378 528 381 531 l 381 646 l 426 646 l 492 533 b 503 528 494 529 497 528 l 568 528 b 575 539 575 528 579 532 l 503 658 b 569 758 550 678 569 717 b 431 868 569 821 531 868 l 313 868 b 304 860 307 868 304 864 l 304 538 b 313 528 304 531 307 528 z m 429 803 b 490 758 474 803 490 783 b 429 711 490 726 474 711 l 381 711 l 381 803 z "},"™":{"ha":1385,"x_min":0,"x_max":0,"o":"m 667 458 l 818 458 b 840 481 832 458 840 467 l 840 710 l 924 579 b 950 565 929 569 938 565 l 1029 565 b 1056 581 1040 565 1050 571 l 1149 731 l 1149 481 b 1171 458 1149 467 1157 458 l 1322 458 b 1344 481 1335 458 1344 467 l 1344 997 b 1322 1019 1344 1011 1335 1019 l 1171 1019 b 1144 1004 1160 1019 1150 1014 l 997 761 l 849 1004 b 822 1019 843 1014 833 1019 l 667 1019 b 646 997 654 1019 646 1011 l 646 481 b 667 458 646 467 654 458 z m 222 458 l 399 458 b 419 481 411 458 419 467 l 419 819 l 574 819 b 596 842 588 819 596 828 l 596 997 b 574 1019 596 1011 588 1019 l 47 1019 b 25 997 33 1019 25 1011 l 25 842 b 47 819 25 828 33 819 l 201 819 l 201 481 b 222 458 201 467 210 458 z "},"✉":{"ha":1389,"x_min":0,"x_max":0,"o":"m 358 106 l 1031 106 b 1138 214 1090 106 1138 154 l 1138 743 b 1031 854 1138 804 1089 854 l 358 854 b 249 743 297 854 249 804 l 249 214 b 358 106 249 153 297 106 z m 693 419 l 367 694 b 356 717 360 700 356 708 b 381 742 356 726 363 742 b 399 735 388 742 393 739 l 693 486 l 988 735 b 1006 742 994 740 999 742 b 1031 717 1024 742 1031 726 b 1019 694 1031 708 1026 700 z "},"☻":{"ha":1389,"x_min":0,"x_max":0,"o":"m 693 13 b 1160 475 950 13 1160 221 b 693 940 1160 731 950 940 b 228 476 438 940 228 731 b 693 13 228 221 438 13 z m 550 517 b 497 568 519 517 497 540 b 550 618 497 594 519 618 b 599 568 576 618 599 594 b 550 517 599 540 576 517 z m 840 517 b 792 568 814 517 792 540 b 840 618 792 594 814 618 b 892 568 869 618 892 594 b 840 517 892 540 869 517 z m 694 272 b 513 376 621 272 554 314 b 521 410 504 389 508 403 b 557 401 532 415 550 413 b 694 321 588 353 638 321 b 832 401 751 321 807 351 b 868 410 838 413 857 415 b 878 376 882 403 885 389 b 694 272 840 310 769 272 z "},"":{"ha":1389,"x_min":0,"x_max":0,"o":"m 425 0 l 963 0 b 1183 221 1085 0 1183 99 l 1183 758 b 963 979 1183 881 1085 979 l 425 979 b 204 758 303 979 204 881 l 204 221 b 425 0 204 99 303 0 z m 676 178 b 664 192 665 178 664 186 b 669 228 664 194 665 203 b 669 258 671 236 672 251 b 640 274 665 268 651 272 b 368 535 485 296 368 404 b 694 801 368 682 515 801 b 1021 535 875 801 1021 682 b 951 372 1021 478 997 425 b 694 183 882 294 728 197 b 676 178 688 181 682 178 z m 481 451 l 572 451 b 578 458 575 451 578 454 l 578 481 b 572 488 578 485 575 488 l 510 488 l 510 600 b 504 607 510 603 507 607 l 481 607 b 475 600 478 607 475 603 l 475 458 b 481 451 475 454 478 451 z m 604 451 l 628 451 b 635 458 632 451 635 454 l 635 600 b 628 607 635 603 632 607 l 604 607 b 597 600 600 607 597 603 l 597 458 b 604 451 597 454 600 451 z m 663 451 l 686 451 b 692 458 689 451 692 454 l 692 542 l 756 456 b 763 451 758 451 760 451 l 786 451 b 792 458 789 451 792 454 l 792 600 b 786 607 792 603 789 607 l 761 607 b 756 600 758 607 756 603 l 756 515 l 692 601 b 685 607 689 607 688 607 l 663 607 b 657 600 660 607 657 603 l 657 458 b 663 451 657 454 660 451 z m 821 451 l 911 451 b 918 458 915 451 918 454 l 918 481 b 911 488 918 485 915 488 l 850 488 l 850 511 l 911 511 b 918 517 915 511 918 514 l 918 540 b 911 546 918 544 915 546 l 850 546 l 850 569 l 911 569 b 918 578 915 569 918 575 l 918 600 b 911 607 918 603 915 607 l 821 607 b 814 600 817 607 814 603 l 814 458 b 821 451 814 454 817 451 z "},"":{"ha":2022,"x_min":0,"x_max":0,"o":"m 892 204 l 974 204 b 994 225 986 204 994 213 l 994 526 l 1221 217 b 1246 204 1228 207 1235 204 l 1328 204 b 1350 225 1339 204 1350 213 l 1350 732 b 1328 753 1350 744 1339 753 l 1243 753 b 1222 732 1232 753 1222 744 l 1222 431 l 996 740 b 971 753 989 750 982 753 l 892 753 b 869 732 879 753 869 744 l 869 225 b 892 204 869 213 879 204 z m 247 204 l 572 204 b 594 225 585 204 594 213 l 594 308 b 572 331 594 321 585 331 l 353 331 l 353 732 b 331 753 353 744 343 753 l 247 753 b 225 732 236 753 225 744 l 225 225 b 247 204 225 213 236 204 z m 686 204 l 768 204 b 790 225 781 204 790 213 l 790 732 b 768 753 790 744 781 753 l 686 753 b 665 732 674 753 665 744 l 665 225 b 686 204 665 213 674 204 z m 1450 204 l 1775 204 b 1797 225 1786 204 1797 213 l 1797 308 b 1775 331 1797 321 1786 331 l 1553 331 l 1553 415 l 1775 415 b 1797 436 1786 415 1797 425 l 1797 521 b 1775 542 1797 532 1786 542 l 1553 542 l 1553 628 l 1775 628 b 1797 649 1786 628 1797 636 l 1797 732 b 1775 753 1797 744 1786 753 l 1450 753 b 1428 732 1439 753 1428 744 l 1428 225 b 1450 204 1428 213 1439 204 z "},"":{"ha":1553,"x_min":0,"x_max":0,"o":"m 246 308 b 424 486 349 308 424 381 b 246 663 424 590 349 663 b 69 486 143 663 69 590 b 246 308 69 381 143 308 z m 575 329 l 779 329 b 783 335 782 329 783 331 l 783 379 b 779 385 783 382 782 385 l 628 385 l 628 636 b 622 643 628 640 625 643 l 575 643 b 569 636 572 643 569 640 l 569 335 b 575 329 569 331 572 329 z m 828 329 l 874 329 b 879 335 878 329 879 331 l 879 636 b 874 643 879 640 878 643 l 828 643 b 822 636 824 643 822 640 l 822 335 b 828 329 822 331 824 329 z m 951 329 l 996 329 b 1001 335 1000 329 1001 331 l 1001 550 l 1142 333 b 1149 329 1144 329 1146 329 l 1196 329 b 1201 335 1200 329 1201 331 l 1201 636 b 1196 643 1201 640 1200 643 l 1153 643 b 1147 636 1149 643 1147 640 l 1147 424 l 1007 639 b 1000 643 1004 643 1003 643 l 951 643 b 946 636 947 643 946 640 l 946 335 b 951 329 946 331 947 329 z m 1274 329 l 1476 329 b 1483 335 1481 329 1483 331 l 1483 378 b 1476 383 1483 382 1481 383 l 1325 383 l 1325 464 l 1458 464 b 1463 468 1461 464 1463 465 l 1463 511 b 1458 517 1463 515 1461 517 l 1325 517 l 1325 588 l 1472 588 b 1478 593 1475 588 1478 590 l 1478 636 b 1472 643 1478 640 1475 643 l 1274 643 b 1268 636 1269 643 1268 640 l 1268 335 b 1274 329 1268 331 1269 329 z m 246 340 b 103 486 160 340 103 401 b 246 631 103 569 160 631 b 389 486 332 631 389 569 b 246 340 389 401 332 340 z m 247 390 b 332 443 285 390 319 407 b 328 450 333 447 332 449 l 296 458 b 289 454 292 460 290 458 b 250 431 283 439 268 431 b 200 486 217 431 200 456 b 249 540 200 515 217 540 b 288 518 267 540 276 535 b 296 514 290 514 292 513 l 325 522 b 329 529 328 524 331 525 b 246 581 317 565 285 581 b 154 486 190 581 154 542 b 247 390 154 429 190 390 z "}}}
